<?xml version="1.0" encoding="utf-8"?>
<!-- Generator: Adobe Illustrator 21.1.0, SVG Export Plug-In . SVG Version: 6.00 Build 0)  -->
<svg version="1.1" id="Layer_1" xmlns="http://www.w3.org/2000/svg" xmlns:xlink="http://www.w3.org/1999/xlink" x="0px" y="0px"
	 viewBox="0 0 50 50" style="enable-background:new 0 0 50 50;" xml:space="preserve">
<style type="text/css">
	.st0{fill:#FFFFFF;}
</style>
<g>
	<path class="st0" d="M43,14H7c-2.2,0-4-1.8-4-4v0c0-2.2,1.8-4,4-4h36c2.2,0,4,1.8,4,4v0C47,12.2,45.2,14,43,14z"/>
</g>
<g>
	<path class="st0" d="M43,29.5H7c-2.2,0-4-1.8-4-4v0c0-2.2,1.8-4,4-4h36c2.2,0,4,1.8,4,4v0C47,27.7,45.2,29.5,43,29.5z"/>
</g>
<g>
	<path class="st0" d="M43,45H7c-2.2,0-4-1.8-4-4v0c0-2.2,1.8-4,4-4h36c2.2,0,4,1.8,4,4v0C47,43.2,45.2,45,43,45z"/>
</g>
</svg>
